<svg width="40" height="40" viewBox="0 0 40 40" fill="none" xmlns="http://www.w3.org/2000/svg">
<g clip-path="url(#clip0_9_60)">
<mask id="mask0_9_60" style="mask-type:luminance" maskUnits="userSpaceOnUse" x="0" y="0" width="40" height="40">
<path d="M40 20C40 8.95431 31.0457 0 20 0C8.95431 0 0 8.95431 0 20C0 31.0457 8.95431 40 20 40C31.0457 40 40 31.0457 40 20Z" fill="white"/>
</mask>
<g mask="url(#mask0_9_60)">
<path d="M20 0.5C30.7696 0.5 39.5 9.23045 39.5 20C39.5 30.7696 30.7696 39.5 20 39.5C9.23045 39.5 0.5 30.7696 0.5 20C0.5 9.23045 9.23045 0.5 20 0.5Z" fill="#FF5A60" stroke="black"/>
<path d="M20 48.8C27.732 48.8 34 43.2483 34 36.4C34 29.5517 27.732 24 20 24C12.268 24 6 29.5517 6 36.4C6 43.2483 12.268 48.8 20 48.8Z" fill="white"/>
<path d="M20 1C30.4934 1 39 9.50659 39 20C39 30.4934 30.4934 39 20 39C9.50659 39 1 30.4934 1 20C1 9.50659 9.50659 1 20 1Z" stroke="#FF5A60" stroke-width="2"/>
<path d="M20 22.8C23.7555 22.8 26.8 19.7555 26.8 16C26.8 12.2445 23.7555 9.20001 20 9.20001C16.2444 9.20001 13.2 12.2445 13.2 16C13.2 19.7555 16.2444 22.8 20 22.8Z" fill="white"/>
</g>
</g>
<defs>
<clipPath id="clip0_9_60">
<rect width="40" height="40" fill="white"/>
</clipPath>
</defs>
</svg>
